<svg xmlns="http://www.w3.org/2000/svg" width="245" height="147" viewBox="0 0 245 147"><g fill="none" fill-rule="evenodd"><path fill="#FFF" fill-rule="nonzero" stroke="#FFF" stroke-width="2.312" d="M39.398 9.32H20.122c-.605 5.397-4.759 9.755-10.082 10.715l.283 12.914a21.573 21.573 0 0 0 8.952 16.992l7.823 5.637-.201.16 2.42 1.76.2-.16.202.16 10.445-7.517c5.525-3.958 8.831-10.275 8.952-16.992l.283-13.474c-5.122-1-9.154-5.078-10.001-10.195z"/><path fill="#E6E7E8" fill-rule="nonzero" d="M41.414 9.72h-4.84c.848 5.157 4.88 9.195 10.042 10.155l-.282 13.474A21.573 21.573 0 0 1 37.38 50.34l-8.025 5.757 2.42 1.76L42.22 50.34c5.525-3.958 8.832-10.276 8.953-16.992l.282-13.474c-5.162-.96-9.194-5.038-10.041-10.155z"/><path stroke="#8E8F92" stroke-width="1.926" d="M41.817 9.72H22.541c-.604 5.397-4.758 9.755-10.081 10.715l.282 12.914a21.573 21.573 0 0 0 8.953 16.992l10.444 7.516 10.444-7.516c5.525-3.958 8.832-10.276 8.953-16.992l.282-13.474c-5.121-.96-9.154-5.038-10-10.155z"/><path fill="#FFDBD5" fill-rule="nonzero" stroke="#8E8F92" stroke-width="1.156" d="M39.357 29.03H34.76v-4.557h-5.202v4.558h-4.557v5.117h4.557v4.558h5.202v-4.558h4.597z"/><path d="M33.026 24.713h1.452v4.558h-1.452zm0 9.196h1.452v4.558h-1.452zm4.597-4.879h1.452v5.159h-1.452z" fill="#FFDBD5" fill-rule="nonzero"/><path stroke="#8E8F92" stroke-width="1.156" d="M39.357 29.03H34.76v-4.557h-5.202v4.558h-4.557v5.117h4.557v4.558h5.202v-4.558h4.597z"/><g transform="translate(97 1)"><path fill="#FFF" fill-rule="nonzero" stroke="#FFF" stroke-width=".989" d="M42.523 50.86v-8.303c0-2.002-5.093-5.215-9.122-7.464 3.387-1.73 5.71-5.24 5.71-9.292v-.94h.1a2.648 2.648 0 0 0 2.645-2.644 2.648 2.648 0 0 0-2.646-2.644h-.098v-.741c.47 0 .964.024 1.483.024h.124v-.049h.247s1.285-6.673-2.25-10.874V6.005h-2.324c-.865-.494-1.904-.89-3.09-1.136-.05-.322-.1-.643-.198-.94-.05-.173-.124-.32-.173-.494A5.324 5.324 0 0 0 28.036.198c-.173 0-.346 0-.495.024a5.318 5.318 0 0 0-4.82 5.29v.098a5.086 5.086 0 0 0-.841.395H17.8v5.29c-.148.42-.296.889-.445 1.383h-.618v3.237c-.148 1.187-.222 2.521-.247 4.004a2.639 2.639 0 0 0-1.335 2.298 2.648 2.648 0 0 0 2.645 2.645c.174 0 .322-.025.495-.05v.989c0 3.979 2.25 7.439 5.538 9.193-4.08 2.25-9.296 5.536-9.296 7.563V45.3c-1.211-.915-2.72-1.434-4.351-1.434a7.237 7.237 0 0 0-7.244 7.241 7.243 7.243 0 0 0 5.884 7.118 2.792 2.792 0 0 0-.222 1.112v2.422c0 .816.667 1.483 1.483 1.483h6.477a1.1 1.1 0 0 0 .495-.1h25.464V60.4a5.744 5.744 0 0 0 2.522-4.77 5.806 5.806 0 0 0-2.522-4.77z"/><g transform="translate(13.35 .494)"><path fill="#E6E7E8" fill-rule="nonzero" d="M13.622.124c-.346 0-.667.024-.989.098a5.306 5.306 0 0 1 0 10.43c.322.049.643.098.99.098a5.306 5.306 0 0 0 5.315-5.313A5.322 5.322 0 0 0 13.622.124z"/><ellipse cx="13.622" cy="5.437" stroke="#8E8F92" stroke-width="1.236" rx="5.315" ry="5.313"/><path fill="#BED2D6" fill-rule="nonzero" stroke="#8E8F92" stroke-width="1.236" d="M.148 63.094V42.507c0-3.311 14.018-10.009 14.018-10.009s14.018 6.673 14.018 10.01v20.586"/><ellipse cx="14.364" cy="39.912" fill="#BED2D6" fill-rule="nonzero" stroke="#8E8F92" stroke-width="1.236" rx="5.068" ry="5.066"/><ellipse cx="3.412" cy="22.168" fill="#FFF" fill-rule="nonzero" stroke="#8E8F92" stroke-width="1.236" rx="2.645" ry="2.644"/><ellipse cx="24.871" cy="22.168" fill="#FFF" fill-rule="nonzero" stroke="#8E8F92" stroke-width="1.236" rx="2.645" ry="2.644"/><path fill="#FFF" fill-rule="nonzero" stroke="#8E8F92" stroke-width="1.236" d="M14.34 7.241c-5.736 0-10.434 4.696-10.434 10.43v8.08c0 4.671 3.115 8.65 7.368 9.96v2.694A2.595 2.595 0 0 0 13.87 41h.939a2.595 2.595 0 0 0 2.596-2.595V35.71c4.252-1.31 7.367-5.289 7.367-9.96v-8.08c-.024-5.734-4.697-10.43-10.433-10.43z"/><path stroke="#8E8F92" stroke-linecap="round" stroke-width=".5" d="M15.65 26.715c0 .668-1.088 1.211-1.434 1.384a.343.343 0 0 1-.223 0c-.346-.173-1.434-.716-1.434-1.384"/><ellipse cx="9.716" cy="21.525" fill="#8E8F92" fill-rule="nonzero" rx="1.162" ry="1.162"/><ellipse cx="18.666" cy="21.525" fill="#8E8F92" fill-rule="nonzero" rx="1.162" ry="1.162"/><ellipse cx="7.565" cy="25.232" fill="#FFF" fill-rule="nonzero" rx="1.731" ry="1.73"/><ellipse cx="21.089" cy="24.911" fill="#FFF" fill-rule="nonzero" rx="1.731" ry="1.73"/><path stroke="#8E8F92" stroke-linecap="round" stroke-width=".742" d="M17.232 28.173c0 1.211-1.41 2.175-3.115 2.175-1.706 0-3.115-.988-3.115-2.175"/><path fill="#FFF" fill-rule="nonzero" d="M3.412 5.956h20.916v8.798H3.412z"/><path fill="#FFF" fill-rule="nonzero" d="M2.349 12.629h2.868v6.327H2.349z"/><path fill="#FFF" fill-rule="nonzero" stroke="#8E8F92" stroke-width="1.236" d="M2.101 20.191s6.972.099 6.972-6.97c0 0 .124 5.586 17.183 5.586 0 0 3.387-17.744-16.194-13.617-.025 0-7.96-.223-7.96 15.001z"/><path fill="#E6E7E8" fill-rule="nonzero" d="M17.702 4.621c8.504 2.274 6.922 13.939 6.971 13.766-3.263 0-5.908-.198-8.06-.544 2.424.544 5.662.89 9.989.89 0 .025 2.447-12.826-8.9-14.112z"/><path stroke="#8E8F92" stroke-linecap="round" stroke-linejoin="round" stroke-width="1.236" d="M2.225 20.191s6.972.099 6.972-6.97c0 0 .124 5.586 17.182 5.586 0 0 3.387-17.744-16.193-13.617-.05 0-7.96-.223-7.96 15.001z"/><ellipse cx="10.705" cy="21.723" fill="#FFF" fill-rule="nonzero" rx="1" ry="1"/><ellipse cx="19.655" cy="21.723" fill="#FFF" fill-rule="nonzero" rx="1" ry="1"/></g><path fill="#BED2D6" fill-rule="nonzero" stroke="#8E8F92" stroke-linecap="round" stroke-width="1.236" d="M25.39 53.233c-.94 2.298-3.584 3.41-5.884 2.446-2.299-.939-3.411-3.583-2.447-5.881"/><path fill="#FFF" fill-rule="nonzero" stroke="#8E8F92" stroke-width="1.236" d="M38.246 61.883h-23.98A5.791 5.791 0 0 1 8.48 56.1a5.791 5.791 0 0 1 5.785-5.783h23.981a5.791 5.791 0 0 1 5.785 5.783c0 3.163-2.595 5.783-5.785 5.783z"/><path fill="#FFF" fill-rule="nonzero" stroke="#8E8F92" stroke-linecap="round" stroke-linejoin="round" stroke-width="1.236" d="M14.562 48.29h4.845l8.06 13.568H14.29s-5.143-1.434-5.143-7.933c0 .025.57-5.635 5.415-5.635z"/><path fill="#FFF" fill-rule="nonzero" stroke="#8E8F92" stroke-linecap="round" stroke-linejoin="round" stroke-width="1.236" d="M19.803 48.957h9.395l7.367 12.407-9.098.519z"/><path fill="#FFF" fill-rule="nonzero" stroke="#8E8F92" stroke-width="1.236" d="M37.455 63.563h-6.527a1.487 1.487 0 0 1-1.483-1.483v-2.422a2.975 2.975 0 0 1 2.967-2.965h3.56a2.975 2.975 0 0 1 2.967 2.965v2.422c0 .816-.668 1.483-1.484 1.483z"/><ellipse cx="9.147" cy="51.552" fill="#FFF" fill-rule="nonzero" stroke="#8E8F92" stroke-width="1.236" rx="7.244" ry="7.241"/><path fill="#FFF" fill-rule="nonzero" stroke="#8E8F92" stroke-width="1.236" d="M15.575 63.687H9.05a1.487 1.487 0 0 1-1.484-1.483v-2.422a2.975 2.975 0 0 1 2.967-2.966h3.56a2.975 2.975 0 0 1 2.967 2.966v2.422c0 .815-.668 1.483-1.484 1.483z"/><path stroke="#8E8F92" stroke-width=".5" d="M2.917 47.227c-1.236.322-2.497-.42-2.793-1.655a1.864 1.864 0 0 1 1.335-2.25 1.459 1.459 0 0 1 1.78 1.063c.173.643-.223 1.26-.84 1.434a.935.935 0 0 1-1.138-.692"/><ellipse cx="12.312" cy="51.552" fill="#FFDBD5" fill-rule="nonzero" rx="1.731" ry="1.73"/></g><path fill="#E6E7E8" fill-rule="nonzero" d="M223.221 21.33h-3.006a1.501 1.501 0 0 1-1.529-1.528v-2.344H205.49l5.095.153h5.452v2.344a1.5 1.5 0 0 0 1.529 1.528h3.006c1.936 0 3.566 1.58 3.566 3.567v28.839a3.56 3.56 0 0 1-2.598 3.413h1.681c1.936 0 3.567-1.63 3.567-3.566V24.897c0-1.936-1.58-3.567-3.567-3.567z"/><path fill="#FFF" fill-rule="nonzero" stroke="#8E8F92" stroke-linecap="round" stroke-width="1.529" d="M220.317 9.102h-16.1c-.816 0-1.53.713-1.53 1.528v4.179c0 .815.714 1.528 1.53 1.528h16.1c.866 0 1.528-.713 1.528-1.528V10.63c0-.815-.713-1.528-1.528-1.528z"/><path fill="#FFF" fill-rule="nonzero" stroke="#8E8F92" stroke-linecap="round" stroke-width="1.019" d="M206.305 9.815v4.178m11.465 2.395v-3.26"/><path stroke="#8E8F92" stroke-linecap="round" stroke-width="1.529" d="M223.323 20.566h-3.006a1.501 1.501 0 0 1-1.529-1.528v-2.344h-13.145v2.344c0 .866-.663 1.528-1.529 1.528h-2.344c-1.936 0-3.566 1.58-3.566 3.567V52.97c0 1.988 1.63 3.567 3.566 3.567h21.553a3.545 3.545 0 0 0 3.567-3.567V24.133c0-1.936-1.58-3.567-3.567-3.567z"/><path fill="#FFDBD5" fill-rule="nonzero" stroke="#8E8F92" stroke-width="1.529" d="M207.477 27.648h19.464v23.845h-19.464z"/><g fill="#FFF" fill-rule="nonzero"><path d="M218.38 33.355h4.689V45.94h-4.688z"/><path d="M226.002 37.28v4.687h-11.566V37.28z"/></g><g transform="translate(1 92)"><ellipse cx="3.328" cy="13.329" fill="#FFF" fill-rule="nonzero" stroke="#8E8F92" stroke-width=".971" rx="2.389" ry="2.353"/><ellipse cx="22.652" cy="13.329" fill="#FFF" fill-rule="nonzero" stroke="#8E8F92" stroke-width=".971" rx="2.389" ry="2.353"/><path fill="#BED2D6" fill-rule="nonzero" stroke="#8E8F92" stroke-width=".971" d="M.02 46.836V33.777c0-3.395 2.545-6.173 5.638-6.173h15.017c3.093 0 5.638 2.778 5.638 6.173v13.06"/><path fill="#FFF" fill-rule="nonzero" stroke="#8E8F92" stroke-width=".971" d="M13.587 30.073h-.841c-1.293 0-2.35-1.041-2.35-2.315v-3.973c0-1.273 1.057-2.315 2.35-2.315h.841c1.293 0 2.35 1.042 2.35 2.315v3.973c0 1.274-1.057 2.315-2.35 2.315z"/><path fill="#FFF" fill-rule="nonzero" stroke="#8E8F92" stroke-width=".971" d="M13.176 25.772c-5.168 0-9.397-4.167-9.397-9.26V9.336c0-5.092 4.229-9.259 9.397-9.259 5.169 0 9.398 4.167 9.398 9.26v7.175c0 5.093-4.229 9.26-9.398 9.26z"/><path stroke="#8E8F92" stroke-linecap="round" stroke-width=".583" d="M15.389 20.351c0 .405-1.077.714-2.389.714-1.331 0-2.388-.328-2.388-.714"/><path fill="#8E8F92" fill-rule="nonzero" d="M17.014 13.29h-.255a.278.278 0 0 1-.274-.27v-1.118c0-.135.118-.27.274-.27h.255c.137 0 .274.116.274.27v1.119c0 .154-.118.27-.274.27zm-7.558 0h-.254a.278.278 0 0 1-.274-.27v-1.118c0-.135.117-.27.274-.27h.254c.137 0 .274.116.274.27v1.119c-.02.154-.137.27-.274.27z"/><path stroke="#8E8F92" stroke-linecap="round" stroke-width=".583" d="M17.21 19.174H8.77v-.328c0-1.041.862-1.89 1.919-1.89h4.6c1.058 0 1.92.849 1.92 1.89v.328z"/><path fill="#FFF" fill-rule="nonzero" stroke="#8E8F92" stroke-linecap="round" stroke-width=".583" d="M14.41 16.32c0 1.022-1.43 1.851-1.43 1.851s-1.429-.83-1.429-1.852"/><path fill="#FFF" fill-rule="nonzero" stroke="#8E8F92" stroke-linecap="round" stroke-width=".971" d="M3.426 13.233h-.783a1.17 1.17 0 0 1-1.175-1.157v-2.99a1.17 1.17 0 0 1 1.175-1.158h.783a.39.39 0 0 1 .392.386v4.533a.39.39 0 0 1-.392.386zm20.323-.328h-.783a.39.39 0 0 1-.392-.386V7.986a.39.39 0 0 1 .392-.386h.783a1.17 1.17 0 0 1 1.174 1.158v2.99a1.17 1.17 0 0 1-1.174 1.157z"/><path fill="#BED2D6" fill-rule="nonzero" stroke="#8E8F92" stroke-width=".971" d="M10.142 26.775l2.995 3.298-4.464 3.299v-5.768zm6.148 0l-2.996 3.298 4.464 3.299v-5.768z"/><path fill="#FFF" fill-rule="nonzero" stroke="#8E8F92" stroke-width=".971" d="M19.696 46.836V28.202c0-.771.646-1.408 1.43-1.408.782 0 1.428.637 1.428 1.408v18.634m-18.482 0V28.202c0-.771.646-1.408 1.43-1.408.783 0 1.429.637 1.429 1.408v18.634"/></g><g transform="translate(27.43 92)"><path fill="#BED2D6" fill-rule="nonzero" stroke="#8E8F92" stroke-width=".955" d="M6.937 46.704v-9.45c0-2.942 2.078-5.01 4.632-5.01l6.175-3.834 6.175 3.833c2.554 0 4.631 2.069 4.631 5.01v9.451"/><path fill="#FFF" fill-rule="nonzero" stroke="#8E8F92" stroke-width=".955" d="M28.303 14.044a9.274 9.274 0 0 0 1.239-4.612c0-5.124-4.174-9.28-9.32-9.28a9.314 9.314 0 0 0-7.28 3.492 2.675 2.675 0 0 0-2.155-1.082A2.679 2.679 0 0 0 8.1 5.238c0 .285.038.55.134.797-1.449.702-2.46 2.163-2.46 3.871 0 1.063.401 2.05 1.05 2.81-3.85.587-6.805 3.89-6.805 7.875 0 4.403 3.583 7.97 8.005 7.97 4.422 0 8.005-3.567 8.005-7.97a7.847 7.847 0 0 0-.706-3.264 9.09 9.09 0 0 0 4.708 1.366 6.782 6.782 0 0 0-.267 1.879c0 3.738 3.03 6.756 6.785 6.756 3.755 0 6.785-3.018 6.785-6.756.02-3.131-2.115-5.77-5.031-6.528z"/><ellipse cx="9.644" cy="20.287" fill="#FFF" fill-rule="nonzero" stroke="#8E8F92" stroke-width=".955" rx="2.039" ry="2.031"/><ellipse cx="26.187" cy="20.287" fill="#FFF" fill-rule="nonzero" stroke="#8E8F92" stroke-width=".955" rx="2.039" ry="2.031"/><path fill="#FFF" fill-rule="nonzero" stroke="#8E8F92" stroke-width=".955" d="M18.068 8.825c-4.422 0-8.043 3.605-8.043 8.008v6.206c0 3.587 2.401 6.642 5.68 7.648v2.069c0 1.1.895 1.992 2 1.992h.725a1.997 1.997 0 0 0 2.001-1.992v-2.069c3.278-1.006 5.68-4.061 5.68-7.648v-6.206c-.02-4.403-3.621-8.008-8.043-8.008z"/><path stroke="#8E8F92" stroke-linecap="round" stroke-width=".545" d="M19.078 22.64c0 .513-.839.93-1.105 1.063a.266.266 0 0 1-.172 0c-.267-.133-1.105-.55-1.105-1.063"/><ellipse cx="14.504" cy="19.395" fill="#8E8F92" fill-rule="nonzero" rx="1" ry="1"/><ellipse cx="21.403" cy="19.395" fill="#8E8F92" fill-rule="nonzero" rx="1" ry="1"/><ellipse cx="12.846" cy="22.64" fill="#FFDBD5" fill-rule="nonzero" rx="1.334" ry="1.328"/><ellipse cx="23.271" cy="22.394" fill="#FFDBD5" fill-rule="nonzero" rx="1.334" ry="1.328"/><path stroke="#8E8F92" stroke-linecap="round" stroke-width=".764" d="M20.298 24.52c0 .93-1.086 1.67-2.402 1.67-1.334 0-2.401-.76-2.401-1.67"/><path fill="#FFF" fill-rule="nonzero" d="M9.644 7.819h16.124v6.756H9.644z"/><path fill="#FFF" fill-rule="nonzero" d="M8.824 12.962h2.211v4.858H8.824z"/><path fill="#FFF" fill-rule="nonzero" stroke="#8E8F92" stroke-width=".955" d="M9.987 17.896a6.524 6.524 0 0 0 6.46-5.56 7.062 7.062 0 0 0 6.252 3.757c2.287 0 3.069-2.144 4.346-3.833"/><g fill="#939598" fill-rule="nonzero"><path d="M14.142 22.071a3.19 3.19 0 0 1-3.202-3.188 3.19 3.19 0 0 1 3.202-3.188 3.19 3.19 0 0 1 3.202 3.188 3.19 3.19 0 0 1-3.202 3.188zm0-5.731a2.549 2.549 0 0 0-2.554 2.543 2.549 2.549 0 0 0 2.554 2.543 2.549 2.549 0 0 0 2.554-2.543 2.549 2.549 0 0 0-2.554-2.543zm7.89 5.731a3.19 3.19 0 0 1-3.202-3.188 3.19 3.19 0 0 1 3.202-3.188 3.19 3.19 0 0 1 3.202 3.188c.02 1.765-1.43 3.188-3.202 3.188zm0-5.731a2.549 2.549 0 0 0-2.554 2.543 2.549 2.549 0 0 0 2.554 2.543 2.549 2.549 0 0 0 2.554-2.543 2.549 2.549 0 0 0-2.554-2.543z"/><path d="M10.654 18.883h-.572a.633.633 0 0 1-.629-.626c0-.342.286-.627.63-.627h.571c.343 0 .629.285.629.627-.02.341-.286.626-.629.626zm8.576-.38h-2.287a.3.3 0 0 1-.304-.303.3.3 0 0 1 .304-.304h2.288a.3.3 0 0 1 .305.304c.019.151-.134.303-.305.303z"/><path d="M19.23 18.541h-2.287a.361.361 0 0 1-.362-.36.35.35 0 0 1 .362-.36h2.288c.19 0 .362.15.362.36a.35.35 0 0 1-.362.36zm-2.287-.626a.26.26 0 0 0-.266.266.26.26 0 0 0 .266.265h2.288a.26.26 0 0 0 .266-.265.26.26 0 0 0-.266-.266h-2.288zm9.167.892h-.57a.633.633 0 0 1-.63-.626c0-.342.286-.627.63-.627h.57c.344 0 .63.285.63.627a.633.633 0 0 1-.63.626z"/></g><path fill="#BED2D6" fill-rule="nonzero" stroke="#8E8F92" stroke-linecap="round" stroke-width=".955" d="M15.819 44.256a3.468 3.468 0 0 1-4.536 1.879c-1.773-.721-2.63-2.752-1.887-4.517m9.663 2.638a3.468 3.468 0 0 0 4.536 1.879c1.773-.721 2.63-2.752 1.887-4.517"/></g><path fill="#FFF" fill-rule="nonzero" stroke="#8E8F92" stroke-width="1.15" d="M139.18 141.641h-38.206a2.78 2.78 0 0 1-2.766-2.778V94.802a2.78 2.78 0 0 1 2.766-2.779h38.184a2.78 2.78 0 0 1 2.766 2.779v44.06a2.747 2.747 0 0 1-2.743 2.779z"/><path fill="#FFF" fill-rule="nonzero" stroke="#A7A9AC" stroke-linecap="round" stroke-linejoin="round" stroke-width=".69" d="M104.479 98.9h10.583v13.938h-10.583z"/><path fill="#FFF" fill-rule="nonzero" stroke="#FFF" stroke-width="1.38" d="M142.87 115.385h-12.198c-.392 3.445-2.997 6.219-6.387 6.866l.185 8.254a13.764 13.764 0 0 0 5.672 10.865l4.934 3.607-.138.092 1.522 1.11.138-.092.138.092 6.595-4.809a13.833 13.833 0 0 0 5.672-10.865l.185-8.624c-3.229-.624-5.788-3.213-6.318-6.496z"/><path fill="#E6E7E8" fill-rule="nonzero" d="M141.811 116.543h-2.777c.486 2.977 2.8 5.307 5.762 5.861l-.162 7.777a12.473 12.473 0 0 1-5.137 9.807l-4.605 3.323 1.388 1.016 5.994-4.339a12.376 12.376 0 0 0 5.137-9.807l.162-7.777c-2.962-.554-5.276-2.884-5.762-5.861z"/><path stroke="#8E8F92" stroke-width="1.15" d="M142.062 116.543h-11.066c-.348 3.115-2.732 5.63-5.788 6.184l.162 7.454a12.471 12.471 0 0 0 5.14 9.807l5.996 4.339 5.996-4.339a12.374 12.374 0 0 0 5.14-9.807l.162-7.777c-2.94-.554-5.255-2.884-5.742-5.861z"/><g fill="#BED2D6" fill-rule="nonzero"><path d="M132.379 128.86a.909.909 0 0 1-.646-.278.925.925 0 0 1 0-1.32l4.127-4.144a.909.909 0 0 1 .646-.278.87.87 0 0 1 .646.278l4.127 4.145a.925.925 0 0 1 0 1.32.916.916 0 0 1-1.314 0l-3.46-3.474-3.458 3.473a1.003 1.003 0 0 1-.668.278z"/><path d="M136.506 135.598a.927.927 0 0 1-.922-.926V123.79c0-.51.415-.926.922-.926.507 0 .922.416.922.926v10.882c0 .51-.415.926-.922.926z"/></g><g fill-rule="nonzero"><g fill="#FFF"><path d="M106.831 112.028V110.5c0-1.158.945-2.13 2.121-2.13h.023v-.209a3.113 3.113 0 0 1-2.144-2.037.94.94 0 0 1-.738-.927c0-.347.185-.648.461-.833v-.208a3.174 3.174 0 0 1 2.537-3.126.666.666 0 0 1 .645-.51c.3 0 .577.209.646.51a3.197 3.197 0 0 1 2.536 3.126v.162a.957.957 0 0 1 .554.88.968.968 0 0 1-.761.949c-.323.995-1.153 1.783-2.145 2.037v.209h.023c1.153 0 2.122.949 2.122 2.13v1.528h-5.88v-.023z"/><path d="M109.713 100.706c.254 0 .461.208.461.463h-.092a2.976 2.976 0 0 1 2.606 2.963h-.231c.023.093.07.186.092.278a.756.756 0 0 1 .715.741.725.725 0 0 1-.715.741 2.85 2.85 0 0 1-2.19 2.06v.58h.23c1.038 0 1.891.856 1.891 1.898v1.32h-5.418v-1.32c0-1.042.853-1.898 1.89-1.898h.23v-.58c-1.06-.23-1.913-1.018-2.19-2.06a.736.736 0 0 1-.691-.74c0-.394.3-.719.691-.742a1.31 1.31 0 0 1 .093-.278h-.323a2.976 2.976 0 0 1 2.605-2.963h-.092a.43.43 0 0 1 .438-.463zm0-.417a.895.895 0 0 0-.807.532 3.418 3.418 0 0 0-2.582 3.311v.093a1.175 1.175 0 0 0-.461.926c0 .51.322.95.784 1.112.184.486.46.926.853 1.296.276.278.622.486.968.648a2.327 2.327 0 0 0-1.845 2.27v1.736h6.249v-1.737a2.31 2.31 0 0 0-1.845-2.269c.346-.162.692-.37.969-.648.369-.347.669-.787.83-1.273.484-.14.83-.58.83-1.112a1.2 1.2 0 0 0-.553-.995v-.023a3.418 3.418 0 0 0-2.583-3.311.856.856 0 0 0-.807-.556z"/></g><g transform="translate(105.84 100.335)"><g transform="translate(0 3.705)"><ellipse cx="1.13" cy="1.042" fill="#FFF" rx="1" ry="1"/><path fill="#8E8F92" d="M1.13 1.968a.927.927 0 0 1 0-1.852c.507 0 .922.417.922.926-.023.51-.415.926-.922.926zm0-1.505a.572.572 0 0 0-.577.579c0 .324.254.579.577.579a.572.572 0 0 0 .576-.58C1.683.719 1.43.464 1.13.464z"/></g><g transform="translate(5.534 3.705)"><ellipse cx="1.084" cy="1.042" fill="#FFF" rx="1" ry="1"/><path fill="#8E8F92" d="M1.084 1.968a.927.927 0 0 1 0-1.852.927.927 0 0 1 0 1.852zm0-1.505a.572.572 0 0 0-.577.579c0 .324.254.579.577.579a.572.572 0 0 0 .576-.58.572.572 0 0 0-.576-.578z"/></g><path fill="#BED2D6" d="M1.153 11.368v-1.32c0-1.041.853-1.898 1.89-1.898h1.615c1.037 0 1.89.857 1.89 1.899v1.32"/><path fill="#8E8F92" d="M6.733 11.368h-.346v-1.32c0-.949-.784-1.736-1.73-1.736H3.045c-.946 0-1.73.787-1.73 1.737v1.32H.968v-1.32a2.07 2.07 0 0 1 2.076-2.084h1.614a2.07 2.07 0 0 1 2.075 2.084v1.32z"/><path fill="#FFF" d="M3.85 8.96a.572.572 0 0 1-.576-.578v-.903c0-.325.254-.58.577-.58.322 0 .576.255.576.58v.903c.023.324-.254.578-.576.578z"/><path fill="#8E8F92" d="M3.85 9.146a.77.77 0 0 1-.76-.764v-.903a.77.77 0 0 1 .76-.764.77.77 0 0 1 .761.764v.903a.77.77 0 0 1-.76.764zm0-2.107a.414.414 0 0 0-.414.416v.903a.414.414 0 1 0 .83 0v-.903a.414.414 0 0 0-.415-.416z"/><g transform="translate(.692 1.62)"><ellipse cx="3.159" cy="3.103" fill="#FFF" rx="2.882" ry="2.894"/><path fill="#8E8F92" d="M3.159 6.182a3.072 3.072 0 0 1-3.067-3.08A3.057 3.057 0 0 1 3.16.024a3.057 3.057 0 0 1 3.067 3.08A3.072 3.072 0 0 1 3.16 6.183zm0-5.788A2.707 2.707 0 0 0 .46 3.103a2.707 2.707 0 0 0 2.7 2.709 2.707 2.707 0 0 0 2.698-2.71C5.88 1.599 4.657.395 3.159.395z"/></g><path fill="#FFDBD5" d="M3.828.718A2.988 2.988 0 0 0 .853 3.705h5.949A2.988 2.988 0 0 0 3.828.718z"/><path fill="#8E8F92" d="M6.963 3.89H.67v-.185C.669 1.968 2.075.533 3.828.533a3.17 3.17 0 0 1 3.158 3.172v.185h-.023zm-5.948-.348h5.602a2.806 2.806 0 0 0-5.602 0z"/><ellipse cx="2.652" cy="4.631" fill="#8E8F92" rx="1" ry="1"/><ellipse cx="4.957" cy="4.631" fill="#8E8F92" rx="1" ry="1"/><path fill="#8E8F92" d="M4.427.88H3.228V.74c0-.323.277-.601.6-.601.322 0 .599.278.599.602V.88zm-.9-.278h.577c-.046-.116-.161-.185-.3-.185a.3.3 0 0 0-.276.185z"/><path fill="#FFF" d="M3.828 6.923a.927.927 0 0 0 .922-.926H2.928a.893.893 0 0 0 .9.926z"/><path fill="#8E8F92" d="M3.828 6.992a.986.986 0 0 1-.992-.995v-.07h1.96v.07a.981.981 0 0 1-.968.995zm-.854-.926c.047.44.392.787.854.787a.873.873 0 0 0 .853-.787H2.974z"/></g><path fill="#BED2D6" d="M110.635 108.485h-.691c1.037 0 1.89.857 1.89 1.899v1.32h.692v-1.32c.023-1.042-.853-1.899-1.89-1.899z" opacity=".54"/><path fill="#8E8F92" d="M112.572 111.704h-.346v-1.32c0-.95-.784-1.737-1.729-1.737h-.323v-.347h.323a2.07 2.07 0 0 1 2.075 2.084v1.32z"/><path fill="#FFDBD5" d="M106.808 104.017s3.09-2.57 5.649 0h-5.65z"/><path fill="#8E8F92" d="M112.457 104.202h-5.65a.173.173 0 0 1-.16-.116.18.18 0 0 1 .046-.185 5.74 5.74 0 0 1 1.913-.996c1.038-.3 2.583-.37 3.966 1.019.046.046.07.116.046.185a.194.194 0 0 1-.161.093zm-5.096-.37h4.635c-.945-.788-2.052-.996-3.274-.626a7.693 7.693 0 0 0-1.36.625z"/><path fill="#FFDBD5" d="M106.9 104.017s3.09-2.57 5.65 0h-5.65z"/><path fill="#8E8F92" d="M112.457 104.202h-5.65a.173.173 0 0 1-.16-.116.18.18 0 0 1 .046-.185 5.74 5.74 0 0 1 1.913-.996c1.038-.3 2.583-.37 3.966 1.019a.18.18 0 0 1 .046.185.194.194 0 0 1-.161.093zm-5.096-.37h4.635c-.945-.788-2.052-.996-3.274-.626a7.693 7.693 0 0 0-1.36.625z"/></g><g fill-rule="nonzero"><path fill="#FFF" d="M141.625 94.2l-22.343 3.843a1.785 1.785 0 0 0-1.453 2.06l.231 1.32.461 2.71 1.36 7.964a2.49 2.49 0 0 0 2.883 2.038l21.65-3.728a1.785 1.785 0 0 0 1.453-2.06l-1.475-8.683-.462-2.71-.23-1.319a1.816 1.816 0 0 0-2.075-1.435z"/><path fill="#BED2D6" stroke="#8E8F92" stroke-width="1.15" d="M145.521 108.786l-22.342 3.844a1.779 1.779 0 0 1-2.052-1.459l-2.168-12.711a1.785 1.785 0 0 1 1.453-2.06l22.342-3.844a1.779 1.779 0 0 1 2.053 1.458l2.167 12.712c.161.949-.507 1.875-1.453 2.06z"/><path fill="#93C4C9" stroke="#8E8F92" stroke-width="1.15" d="M119.167 99.771l25.839-4.43.465 2.715-25.838 4.43z"/><path fill="#FFF" d="M122.98 108.304l4.75-.814.324 1.894-4.75.814zm5.534-.946l4.75-.814.325 1.894-4.75.815zm5.511-.948l4.75-.815.325 1.894-4.75.814z"/><path fill="#FFF" stroke="#8E8F92" stroke-width=".5" d="M142.432 100.104l-2.721.463a1.813 1.813 0 0 1-1.153 1.783l.346 1.829a3.174 3.174 0 0 0 1.683 2.222l1.66.81 1.291-1.319c.692-.695.992-1.69.854-2.64l-.277-1.944a1.79 1.79 0 0 1-1.683-1.204z"/><path fill="#FFDBD5" d="M141.117 104.271l-.876.14-.207-1.228.876-.139-.162-.88 1.223-.231.16.903.877-.162.208 1.227-.877.162.162.88-1.222.208z"/><path fill="#8E8F92" d="M141.878 102.072l.162.88.876-.162.161.995-.876.162.162.88-.992.162-.161-.88-.877.162-.161-.995.876-.162-.161-.88.991-.162zm.208-.255l-.23.046-.992.162-.23.047.045.231.116.649-.646.115-.23.047.046.231.16.996.047.231.23-.046.646-.116.116.649.046.231.23-.046.992-.162.23-.047-.046-.231-.115-.648.645-.116.231-.047-.046-.231-.161-.996-.047-.231-.23.046-.646.116-.115-.648-.046-.232z"/><path fill="#A7A9AC" d="M108.118 122.565h12.965c.241 0 .437-.2.437-.446a.441.441 0 0 0-.437-.446h-12.965c-.24 0-.436.2-.436.446s.195.446.436.446z"/><path fill="#F9C2BB" d="M102.62 122.565h3.004c.24 0 .436-.2.436-.446a.441.441 0 0 0-.436-.446h-3.004c-.241 0-.437.2-.437.446s.196.446.437.446z"/><path fill="#A7A9AC" d="M102.62 125.74h18.463c.241 0 .437-.2.437-.446a.441.441 0 0 0-.437-.446H102.62c-.241 0-.437.2-.437.446s.196.446.437.446z"/><path fill="#F9C2BB" d="M114.39 129.004h4.34c.24 0 .436-.2.436-.446a.441.441 0 0 0-.437-.446h-4.34c-.24 0-.436.2-.436.446s.196.446.437.446z"/><path fill="#A7A9AC" d="M102.62 129.004h9.767c.241 0 .437-.2.437-.446a.441.441 0 0 0-.437-.446h-9.767c-.241 0-.437.2-.437.446s.196.446.437.446zm5.797 3.157h12.666c.241 0 .437-.2.437-.446a.441.441 0 0 0-.437-.446h-12.666c-.241 0-.437.2-.437.446s.196.446.437.446z"/><path fill="#F9C2BB" d="M102.62 132.161h3.004c.24 0 .436-.2.436-.446a.441.441 0 0 0-.436-.446h-3.004c-.241 0-.437.2-.437.446s.196.446.437.446z"/></g><g fill-rule="nonzero" stroke-width=".611" transform="translate(180 96)"><path fill="#FFF" stroke="#8E8F92" stroke-linecap="round" d="M25.9 3.15l12.634 22.273a.988.988 0 0 1-.345 1.326l-20.53 12.059c-.447.269-1.037.103-1.301-.353L.244 10.05A.988.988 0 0 1 .59 8.723L15.096.186"/><path fill="#FFF" stroke="#8E8F92" stroke-linecap="round" d="M18.352 5.346L5.29 13.012a1.03 1.03 0 0 1-1.424-.394l-1.038-1.844a1.07 1.07 0 0 1 .387-1.45l13.061-7.666a1.03 1.03 0 0 1 1.425.393l1.037 1.844c.285.498.122 1.14-.386 1.45z"/><path fill="#FFF" stroke="#E5E5E5" stroke-linecap="round" d="M23.072 33.193l-4.578 2.693a1.234 1.234 0 0 1-1.709-.476l-3.906-6.88a1.281 1.281 0 0 1 .468-1.74l4.577-2.693a1.234 1.234 0 0 1 1.71.476l3.906 6.88c.346.6.142 1.387-.468 1.74z"/><path fill="#BED2D6" stroke="#8E8F92" d="M28.606 15.022l-4.578 2.693a1.234 1.234 0 0 1-1.709-.476l-3.906-6.88a1.281 1.281 0 0 1 .468-1.74l4.577-2.693a1.234 1.234 0 0 1 1.71.476l3.906 6.88a1.276 1.276 0 0 1-.468 1.74z"/><path fill="#FFF" stroke="#E5E5E5" stroke-linecap="round" d="M5.778 16.078l9.501-5.594m-8.585 7.21l8.382-4.93m-4.069 12.514l9.501-5.574m-10.417 3.958l5.88-3.44m.916-.539l2.706-1.595m-10.539 3.75l9.033-5.325"/><ellipse cx="22.074" cy="22.89" fill="#FFF" stroke="#E5E5E5" stroke-linecap="round" rx="1.038" ry="1.057" transform="rotate(-30.001 22.074 22.89)"/><ellipse cx="23.637" cy="25.647" fill="#FFF" stroke="#E5E5E5" stroke-linecap="round" rx="1.038" ry="1.057" transform="rotate(-30.001 23.637 25.647)"/><ellipse cx="25.199" cy="28.404" fill="#FFF" stroke="#E5E5E5" stroke-linecap="round" rx="1.038" ry="1.057" transform="rotate(-30.001 25.2 28.404)"/><path fill="#FFF" stroke="#E5E5E5" stroke-linecap="round" d="M24.374 21.735l7.223-4.269M25.94 24.49l7.223-4.247m-5.656 7.003L34.73 23m-9.095 8.41l10.417-6.112m-11.292-2.88l4.517-2.652m-2.95 5.408l4.517-2.652m-2.95 5.428l4.516-2.672"/><ellipse cx="8.791" cy="18.915" fill="#FFF" stroke="#8E8F92" stroke-linecap="round" rx="1" ry="1" transform="rotate(-30.001 8.79 18.915)"/><ellipse cx="11.21" cy="17.487" fill="#FFF" stroke="#E5E5E5" stroke-linecap="round" rx="1" ry="1" transform="rotate(-30.001 11.21 17.487)"/><path fill="#FFF" stroke="#8E8F92" stroke-linecap="round" d="M22.706 5.035l-3.642 2.134L15.157.29 25.9 3.15"/><path fill="#D1D3D4" stroke="#8E8F92" stroke-linecap="round" d="M22.706 5.035l-3.642 2.134L15.117.207 25.9 3.15"/></g><g fill-rule="nonzero" stroke-width=".611" transform="matrix(-1 0 0 1 244.432 96)"><path fill="#FFF" stroke="#8E8F92" stroke-linecap="round" d="M25.9 3.15l12.634 22.273a.988.988 0 0 1-.345 1.326l-20.53 12.059c-.447.269-1.037.103-1.301-.353L.244 10.05A.988.988 0 0 1 .59 8.723L15.096.186"/><path fill="#FFF" stroke="#8E8F92" stroke-linecap="round" d="M18.352 5.346L5.29 13.012a1.03 1.03 0 0 1-1.424-.394l-1.038-1.844a1.07 1.07 0 0 1 .387-1.45l13.061-7.666a1.03 1.03 0 0 1 1.425.393l1.037 1.844c.285.498.122 1.14-.386 1.45z"/><path fill="#FFF" stroke="#E5E5E5" stroke-linecap="round" d="M23.072 33.193l-4.578 2.693a1.234 1.234 0 0 1-1.709-.476l-3.906-6.88a1.281 1.281 0 0 1 .468-1.74l4.577-2.693a1.234 1.234 0 0 1 1.71.476l3.906 6.88c.346.6.142 1.387-.468 1.74z"/><path fill="#FFDBD5" stroke="#8E8F92" d="M28.606 15.022l-4.578 2.693a1.234 1.234 0 0 1-1.709-.476l-3.906-6.88a1.281 1.281 0 0 1 .468-1.74l4.577-2.693a1.234 1.234 0 0 1 1.71.476l3.906 6.88a1.276 1.276 0 0 1-.468 1.74z"/><path fill="#FFF" stroke="#E5E5E5" stroke-linecap="round" d="M5.778 16.078l9.501-5.594m-8.585 7.21l8.382-4.93m-4.069 12.514l9.501-5.574m-10.417 3.958l5.88-3.44m.916-.539l2.706-1.595m-10.539 3.75l9.033-5.325"/><ellipse cx="22.074" cy="22.89" fill="#FFF" stroke="#E5E5E5" stroke-linecap="round" rx="1.038" ry="1.057" transform="rotate(-30.001 22.074 22.89)"/><ellipse cx="23.637" cy="25.647" fill="#FFF" stroke="#E5E5E5" stroke-linecap="round" rx="1.038" ry="1.057" transform="rotate(-30.001 23.637 25.647)"/><ellipse cx="25.199" cy="28.404" fill="#FFF" stroke="#E5E5E5" stroke-linecap="round" rx="1.038" ry="1.057" transform="rotate(-30.001 25.2 28.404)"/><path fill="#FFF" stroke="#E5E5E5" stroke-linecap="round" d="M24.374 21.735l7.223-4.269M25.94 24.49l7.223-4.247m-5.656 7.003L34.73 23m-9.095 8.41l10.417-6.112m-11.292-2.88l4.517-2.652m-2.95 5.408l4.517-2.652m-2.95 5.428l4.516-2.672"/><ellipse cx="8.791" cy="18.915" fill="#FFF" stroke="#8E8F92" stroke-linecap="round" rx="1" ry="1" transform="rotate(-30.001 8.79 18.915)"/><ellipse cx="11.21" cy="17.487" fill="#FFF" stroke="#E5E5E5" stroke-linecap="round" rx="1" ry="1" transform="rotate(-30.001 11.21 17.487)"/><path fill="#FFF" stroke="#8E8F92" stroke-linecap="round" d="M22.706 5.035l-3.642 2.134L15.157.29 25.9 3.15"/><path fill="#D1D3D4" stroke="#8E8F92" stroke-linecap="round" d="M22.706 5.035l-3.642 2.134L15.117.207 25.9 3.15"/></g><path fill="#E5E5E5" d="M208.951 97.597v-.123c0-.07.057-.126.125-.126h4.114a.092.092 0 0 0 .092-.092v-1.043c0-.01 0-.017.002-.023a.13.13 0 0 1 .018.013l1.661 1.33c.023.019.036.041.036.064 0 .016-2.016.016-6.048 0z"/><path fill="#8E8F92" fill-rule="nonzero" stroke="#8E8F92" stroke-width=".5" d="M215.785 97.967l-2.368-1.908a.235.235 0 0 0-.147-.059c-.085 0-.171.066-.171.213v.95h-4.023a.31.31 0 0 0-.307.31v1.404c0 .171.138.31.307.31h4.023v.951c0 .147.086.213.171.213.048 0 .098-.02.147-.06l2.368-1.907a.268.268 0 0 0 .104-.208.269.269 0 0 0-.104-.209zm-.114.273l-2.368 1.908a.165.165 0 0 1-.02.013.137.137 0 0 1-.001-.023v-1.043a.092.092 0 0 0-.091-.092h-4.115a.126.126 0 0 1-.125-.126v-1.403c0-.07.057-.126.125-.126h4.114a.092.092 0 0 0 .092-.092v-1.043c0-.01 0-.017.002-.023a.13.13 0 0 1 .018.013l2.369 1.908c.023.019.035.042.035.065 0 .022-.012.045-.035.064z"/><path fill="#E5E5E5" d="M215.707 133.582v.124a.126.126 0 0 1-.125.126h-4.114a.092.092 0 0 0-.092.092v1.042c0 .01 0 .017-.002.023a.13.13 0 0 1-.018-.013l-1.66-1.33c-.024-.018-.037-.041-.037-.064 0-.015 2.016-.015 6.048 0z"/><path fill="#8E8F92" fill-rule="nonzero" stroke="#8E8F92" stroke-width=".5" d="M208.873 133.212l2.368 1.908c.05.04.099.06.147.06.085 0 .171-.067.171-.214v-.95h4.023a.31.31 0 0 0 .307-.31v-1.404a.31.31 0 0 0-.307-.31h-4.023v-.95c0-.148-.086-.214-.17-.214a.236.236 0 0 0-.148.06l-2.368 1.907a.268.268 0 0 0-.104.209.27.27 0 0 0 .104.208zm.114-.273l2.369-1.907a.165.165 0 0 1 .018-.014.137.137 0 0 1 .002.023v1.043c0 .05.041.092.092.092h4.114c.069 0 .125.057.125.126v1.404a.126.126 0 0 1-.125.126h-4.114a.092.092 0 0 0-.092.092v1.042c0 .01 0 .017-.002.023a.13.13 0 0 1-.018-.013l-2.369-1.908c-.023-.018-.035-.041-.035-.064s.012-.046.035-.065z"/></g></svg>